<svg width="60" height="62" viewBox="55 23 80 82" fill="none" xmlns="http://www.w3.org/2000/svg">
<path d="M96.3398 33C104.46 33 110.62 34.4002 114.86 37.2002C115.9 37.8801 116.78 38.6406 117.58 39.4805C119.98 42.0804 121.18 45.3605 121.18 49.3604V49.5195L90.5 72.5996V59.8799L104.54 49.3203C104.26 48.4004 103.74 47.5999 102.98 46.96C101.701 45.88 99.9401 45.3203 97.7002 45.3203H81.7402V82.5996H98.7002C101.54 82.5996 103.7 82.0798 105.1 81C106.5 79.92 107.22 77.9601 107.22 76.2002C107.22 74.4402 106.66 73 105.62 71.96L115.54 64.5596C116.1 64.7596 116.66 65.0403 117.18 65.3203C119.38 66.5603 121.06 68.1602 122.14 70.1602L122.18 70.2002C123.26 72.2002 123.82 71.6404 123.82 77.3604C123.82 83.0802 121.42 87.4805 116.7 90.4805C111.94 93.4804 105.1 95 96.0996 95H65.3799V33H96.3398Z" fill="currentColor"/>
</svg>
